<?xml version="1.0" encoding="utf-8"?>

<!-- Uploaded to: SVG Repo, www.svgrepo.com, Generator: SVG Repo Mixer Tools -->
<svg fill="#000000" height="800px" width="800px" version="1.1" id="Icons" xmlns="http://www.w3.org/2000/svg" xmlns:xlink="http://www.w3.org/1999/xlink" 
	 viewBox="0 0 32 32" xml:space="preserve">
<g>
	<ellipse cx="11.5" cy="13" rx="2.5" ry="1"/>
	<path d="M28.1,7.9C25.2,6.7,21.4,6,17.3,6C8.6,6,2,9,2,13c0,3,2.1,5.4,5.5,6.4c1,0.3,2,0.4,3.1,0.4c1.3,0,2.7-0.2,4-0.7
		c2.1-0.7,4.1-1.9,6.2-3.6c1.2-1,2.8-1.6,4.5-1.6h1.3c1.7,0,3-1.1,3.3-2.6C30.2,10,29.5,8.6,28.1,7.9z M11.5,16C8.9,16,7,14.7,7,13
		s1.9-3,4.5-3s4.5,1.3,4.5,3S14.1,16,11.5,16z"/>
</g>
<path d="M26.6,16h-1.3c-1.2,0-2.4,0.4-3.2,1.1c-2.3,1.9-4.6,3.2-6.9,4c-1.5,0.5-3.1,0.8-4.6,0.8c-1.2,0-2.5-0.2-3.6-0.5
	c-2.1-0.6-3.8-1.7-5-3.1V20c0,3,2.1,5.4,5.5,6.4c1,0.3,2,0.4,3.1,0.4c1.3,0,2.7-0.2,4-0.7c2.1-0.7,4.1-1.9,6.2-3.6
	c1.2-1,2.8-1.6,4.5-1.6h1.3c1.9,0,3.1-1.3,3.4-2.7c0-0.1,0.1-0.2,0.1-0.3v-3.2C29.1,15.6,27.9,16,26.6,16z"/>
</svg>