<?xml version="1.0" encoding="utf-8"?>

<!-- Uploaded to: SVG Repo, www.svgrepo.com, Generator: SVG Repo Mixer Tools -->
<svg fill="#000000" height="800px" width="800px" version="1.1" id="Icons" xmlns="http://www.w3.org/2000/svg" xmlns:xlink="http://www.w3.org/1999/xlink" 
	 viewBox="0 0 32 32" xml:space="preserve">
<g>
	<path d="M20.6,12.8c0.2,0.2,0.5,0.3,0.7,0.3s0.5-0.1,0.7-0.3l5.4-5.4c0.4-0.4,0.4-1,0-1.4s-1-0.4-1.4,0l-5.4,5.4
		C20.2,11.8,20.2,12.4,20.6,12.8z"/>
	<path d="M30.1,10.1c0.4-0.4,0.4-1,0-1.4s-1-0.4-1.4,0l-4.9,4.9c-1.3,1.3-2.5,2-3.7,2c-0.2,0-0.5,0-0.7,0.1L17.7,14
		c0-0.2,0.1-0.5,0.1-0.7c0.1-1.1,0.8-2.4,2-3.7l4.9-4.9c0.4-0.4,0.4-1,0-1.4s-1-0.4-1.4,0l-4.9,4.9c-1.3,1.3-2.1,2.7-2.5,4L7.2,3.5
		c-0.4-0.4-1-0.4-1.4,0c-2.9,2.9-2.9,7.7,0,10.7l8.3,8.3c0.3,0.3,0.7,0.4,1.1,0.2c1.1-0.5,2.4-0.2,3.2,0.8l4.1,5.1
		c0.6,0.8,1.5,1.2,2.5,1.3c0.1,0,0.1,0,0.2,0c0.9,0,1.8-0.4,2.5-1c0.7-0.7,1-1.5,1-2.5s-0.4-1.8-1-2.5l-6.5-6.5
		c1.3-0.3,2.7-1.1,4-2.5L30.1,10.1z"/>
	<path d="M4.7,24.2c-0.7,0.6-1.2,1.4-1.3,2.3c-0.1,0.9,0.3,1.8,0.9,2.5C4.9,29.7,5.7,30,6.6,30c0.1,0,0.2,0,0.2,0
		c0.9-0.1,1.8-0.5,2.3-1.2l3.7-4.6l-3.6-3.6L4.7,24.2z"/>
</g>
</svg>